<!DOCTYPE svg PUBLIC "-//W3C//DTD SVG 1.1//EN" "http://www.w3.org/Graphics/SVG/1.1/DTD/svg11.dtd">

<!-- Uploaded to: SVG Repo, www.svgrepo.com, Transformed by: SVG Repo Mixer Tools -->
<svg fill="#ced0d5" width="16" height="16" viewBox="0 0 24 24" xmlns="http://www.w3.org/2000/svg" stroke="#ced0d5">

<g id="SVGRepo_bgCarrier" stroke-width="0"/>

<g id="SVGRepo_tracerCarrier" stroke-linecap="round" stroke-linejoin="round"/>

<g id="SVGRepo_iconCarrier">

<path d="M3,9A1,1,0,0,0,4,8V5A1,1,0,0,1,5,4H8A1,1,0,0,0,8,2H5A3,3,0,0,0,2,5V8A1,1,0,0,0,3,9ZM8,20H5a1,1,0,0,1-1-1V16a1,1,0,0,0-2,0v3a3,3,0,0,0,3,3H8a1,1,0,0,0,0-2ZM12,8a4,4,0,1,0,4,4A4,4,0,0,0,12,8Zm0,6a2,2,0,1,1,2-2A2,2,0,0,1,12,14ZM19,2H16a1,1,0,0,0,0,2h3a1,1,0,0,1,1,1V8a1,1,0,0,0,2,0V5A3,3,0,0,0,19,2Zm2,13a1,1,0,0,0-1,1v3a1,1,0,0,1-1,1H16a1,1,0,0,0,0,2h3a3,3,0,0,0,3-3V16A1,1,0,0,0,21,15Z"/>

</g>

</svg>