<svg t="1764156831190" class="icon" viewBox="0 0 1024 1024" version="1.1" xmlns="http://www.w3.org/2000/svg" p-id="6307"
     width="16" height="16">
    <path d="M960 166.4L798.4 17.6l-4.8-4.8C785.6 4.8 768 0 755.2 0H107.2c-33.6 0-64 30.4-64 64v896c0 33.6 30.4 64 64 64H916.8c33.6 0 64-30.4 64-64V212.8c0-16-8-33.6-20.8-46.4zM640 84.8v84.8H299.2V84.8H640zM340.8 939.2V640h340.8v299.2H340.8z m555.2 0h-128v-320c0-33.6-30.4-64-64-64H320c-33.6 0-64 30.4-64 64v320H128V84.8h84.8V192c0 33.6 30.4 64 64 64h384c33.6 0 64-30.4 64-64V84.8h20.8l148.8 136v718.4z"
          p-id="6308" fill="#c4c6cc"></path>
    <path d="M596.8 683.2H427.2c-25.6 0-43.2 17.6-43.2 43.2s17.6 43.2 43.2 43.2h171.2c25.6 0 43.2-17.6 43.2-43.2-1.6-27.2-19.2-43.2-44.8-43.2zM596.8 811.2H427.2c-25.6 0-43.2 17.6-43.2 43.2s17.6 43.2 43.2 43.2h171.2c25.6 0 43.2-17.6 43.2-43.2-1.6-27.2-19.2-43.2-44.8-43.2z"
          p-id="6309" fill="#c4c6cc"></path>
</svg>
